<svg width="33.835" height="33.835" xmlns="http://www.w3.org/2000/svg">

 <g>
  <title>background</title>
  <rect fill="none" id="canvas_background" height="402" width="582" y="-1" x="-1"/>
 </g>
 <g>
  <title>Layer 1</title>
  <g id="svg_1">
   <path fill="#273141" id="svg_2" d="m17.074,11.753c-2.435,0 -4.406,1.973 -4.406,4.405c0,2.433 1.974,4.406 4.406,4.406c2.431,0 4.407,-1.974 4.407,-4.406c0,-2.432 -1.974,-4.405 -4.407,-4.405zm1.792,5.905c-0.131,0.186 -0.317,0.324 -0.559,0.422c-0.09,0.035 -0.191,0.062 -0.311,0.088l0,0.736l-0.699,0l0,-0.68c-0.018,0 -0.033,0 -0.052,0l-0.397,0l0,0.68l-0.699,0l0,-0.68l-1.066,0l0,-0.57l0.163,0c0.108,0 0.183,-0.01 0.221,-0.027c0.038,-0.02 0.065,-0.045 0.081,-0.082c0.016,-0.033 0.023,-0.111 0.023,-0.23l0,-2.305c0,-0.121 -0.008,-0.2 -0.023,-0.234c-0.016,-0.033 -0.043,-0.061 -0.081,-0.08c-0.038,-0.019 -0.112,-0.028 -0.221,-0.028l-0.163,0l0,-0.571l1.066,0l0,-0.679l0.699,0l0,0.679l0.449,0l0,-0.679l0.699,0l0,0.728c0.104,0.021 0.197,0.045 0.277,0.077c0.205,0.084 0.363,0.205 0.474,0.361s0.165,0.329 0.165,0.516c0,0.137 -0.029,0.267 -0.086,0.389c-0.06,0.122 -0.144,0.231 -0.253,0.325c-0.109,0.094 -0.256,0.17 -0.436,0.231c0.193,0.05 0.342,0.104 0.443,0.164c0.146,0.082 0.266,0.197 0.352,0.348c0.088,0.148 0.131,0.315 0.131,0.498c0.002,0.216 -0.063,0.42 -0.197,0.603zm1.268,4.485l0,-0.584l0.586,0l0,0.584l-0.586,0zm2.34,-4.092l0,-0.586l0.584,0l0,0.586l-0.584,0zm-7.018,3.508l0.584,0l0,0.584l-0.584,0l0,-0.584zm5.848,-0.586l1.754,0l0,0.586l-0.584,0l0,0.584l-0.586,0l0,-0.584l-0.584,0l0,-0.586zm1.754,-1.168l-0.584,0l0,-0.586l0.584,0l0,0.586zm0,-9.941l-4.094,0l0,1.22c-0.372,-0.14 -0.762,-0.238 -1.168,-0.293l0,-0.342l-0.586,0l0,0.294c-0.046,-0.001 -0.09,-0.007 -0.136,-0.007c-0.151,0 -0.3,0.012 -0.448,0.022l0,-0.31l0.584,0l0,-0.585l-1.754,0l0,1.119c-0.201,0.063 -0.395,0.142 -0.585,0.226l0,-1.345l-4.093,0l0,4.094l1.345,0c-0.302,0.674 -0.474,1.419 -0.474,2.202c0,0.047 0.007,0.091 0.008,0.137l-0.294,0l0,-1.754l-0.585,0l0,2.34l0.926,0c0.055,0.406 0.154,0.796 0.293,1.169l-1.219,0l0,4.092l4.093,0l0,-1.031c0.674,0.302 1.418,0.474 2.203,0.474c0.45,0 0.887,-0.062 1.306,-0.164l0,0.726l0.584,0l0,-0.908c0.201,-0.076 0.396,-0.16 0.584,-0.258l0,0.578l0.586,0l0,-0.925c0.111,-0.075 0.221,-0.159 0.326,-0.243l2.014,0l0,-0.587l-1.394,0c0.168,-0.186 0.328,-0.377 0.469,-0.584l0.34,0l0,-0.571c0.193,-0.371 0.342,-0.771 0.445,-1.185l0.141,0l0,-0.825c0.01,-0.113 0.016,-0.229 0.02,-0.346l0.564,0l0,-0.584l-0.582,0c-0.018,-0.198 -0.041,-0.396 -0.078,-0.586l0.66,0l0,-0.584l-0.807,0c-0.062,-0.201 -0.142,-0.396 -0.228,-0.585l1.033,0l0.001,-4.091l0,0zm-11.696,3.509l0,-2.925l2.925,0l0,1.066c-0.204,0.123 -0.399,0.257 -0.585,0.404l0,-0.887l-1.754,0l0,1.754l0.886,0c-0.147,0.187 -0.28,0.382 -0.403,0.586l-1.069,0.002l0,0zm2.925,8.186l-2.925,0l0,-2.924l0.892,0c0.104,0.201 0.218,0.396 0.347,0.584l-0.651,0l0,1.754l1.754,0l0,-0.573c0.187,0.146 0.381,0.281 0.585,0.404l-0.002,0.755l0,0zm2.787,-0.475c-2.72,0 -4.925,-2.205 -4.925,-4.925c0,-2.719 2.205,-4.924 4.925,-4.924c2.718,0 4.923,2.205 4.923,4.924c0.001,2.72 -2.205,4.925 -4.923,4.925zm5.4,-7.711l-0.754,0c-0.123,-0.204 -0.258,-0.399 -0.404,-0.585l0.572,0l0,-1.755l-1.754,0l0,0.651c-0.188,-0.128 -0.383,-0.242 -0.586,-0.346l0,-0.892l2.926,0l0,2.927l0,0zm-4.567,3.258c0.058,0.086 0.087,0.188 0.087,0.312c0,0.145 -0.041,0.269 -0.122,0.369c-0.08,0.104 -0.18,0.17 -0.294,0.203c-0.115,0.033 -0.261,0.049 -0.437,0.049l-0.302,0c-0.101,0 -0.161,-0.006 -0.185,-0.016c-0.021,-0.012 -0.039,-0.031 -0.049,-0.059c-0.008,-0.021 -0.014,-0.096 -0.016,-0.223l0,-0.896l0.535,0c0.234,0 0.408,0.021 0.523,0.065c0.118,0.049 0.204,0.112 0.26,0.196zm-0.861,-0.864l-0.453,0l0,-1.006l0.453,0c0.266,0 0.448,0.016 0.551,0.048c0.104,0.032 0.182,0.088 0.236,0.164c0.055,0.078 0.08,0.17 0.08,0.279c0,0.104 -0.028,0.195 -0.086,0.276c-0.057,0.078 -0.143,0.14 -0.256,0.179c-0.114,0.041 -0.288,0.06 -0.525,0.06zm7.562,-15.767l-15.38,0c-1.84,0 -3.338,1.562 -3.338,3.48l0,26.875c0,1.92 1.498,3.479 3.338,3.479l15.381,0c1.84,0 3.336,-1.562 3.336,-3.479l0,-26.874c-0.001,-1.92 -1.497,-3.481 -3.337,-3.481zm-10.253,1.293l5.125,0c0.275,0 0.5,0.224 0.5,0.5c0,0.275 -0.225,0.5 -0.5,0.5l-5.125,0c-0.275,0 -0.5,-0.225 -0.5,-0.5c0,-0.276 0.224,-0.5 0.5,-0.5zm2.563,31.75c-0.828,0 -1.5,-0.672 -1.5,-1.5s0.672,-1.5 1.5,-1.5s1.5,0.672 1.5,1.5s-0.672,1.5 -1.5,1.5zm9.026,-3.928l-18.054,0l0,-25.634c0,-0.048 0.01,-0.093 0.014,-0.14l18.027,0c0.004,0.047 0.014,0.092 0.014,0.14l-0.001,25.634l0,0z"/>
  </g>
  <g id="svg_3"/>
  <g id="svg_4"/>
  <g id="svg_5"/>
  <g id="svg_6"/>
  <g id="svg_7"/>
  <g id="svg_8"/>
  <g id="svg_9"/>
  <g id="svg_10"/>
  <g id="svg_11"/>
  <g id="svg_12"/>
  <g id="svg_13"/>
  <g id="svg_14"/>
  <g id="svg_15"/>
  <g id="svg_16"/>
  <g id="svg_17"/>
 </g>
</svg>