<svg width="35" height="35" xmlns="http://www.w3.org/2000/svg">

 <g>
  <title>background</title>
  <rect fill="none" id="canvas_background" height="402" width="582" y="-1" x="-1"/>
 </g>
 <g>
  <title>Layer 1</title>
  <g stroke="null" id="svg_1">
   <path stroke="null" fill="#273141" id="svg_2" d="m26.702948,0l-17.861236,0c-1.488055,0 -2.70597,1.063 -2.70597,2.364l0,30.271c0,1.301 1.217916,2.365 2.70597,2.365l17.861236,0c1.488055,0 2.70597,-1.062 2.70597,-2.364l0,-30.272c0,-1.301 -1.217916,-2.364 -2.70597,-2.364zm-11.787683,1.704l5.71413,0c0.180856,0 0.327372,0.128 0.327372,0.287c0,0.158 -0.146516,0.286 -0.327372,0.286l-5.71413,0c-0.180856,0 -0.327372,-0.128 -0.327372,-0.286c0,-0.159 0.146516,-0.287 0.327372,-0.287zm2.857065,32.114c-0.746317,0 -1.352985,-0.529 -1.352985,-1.183s0.605524,-1.182 1.352985,-1.182s1.352985,0.528 1.352985,1.182s-0.606668,1.183 -1.352985,1.183zm9.753626,-3.193l-19.507253,0l0,-26.876l19.507253,0l0,26.876zm-9.753626,-7.936c-2.591505,0 -5.026191,-0.881 -6.856498,-2.48c-0.263271,-0.232 -0.263271,-0.607 0,-0.839c0.265561,-0.231 0.694807,-0.231 0.961512,0c1.573904,1.376 3.668627,2.134 5.894986,2.134c2.226359,0 4.321082,-0.758 5.894986,-2.134c0.263271,-0.231 0.692518,-0.231 0.961512,0c0.263271,0.231 0.263271,0.606 0,0.839c-1.830307,1.6 -4.264994,2.48 -6.856498,2.48zm-1.529262,-9.677c0,0.794 -0.738304,1.438 -1.647162,1.438c-0.907713,0 -1.646017,-0.644 -1.646017,-1.438c0,-0.795 0.738304,-1.438 1.646017,-1.438c0.910003,-0.001 1.647162,0.643 1.647162,1.438zm6.351704,0c0,0.794 -0.738304,1.438 -1.646017,1.438s-1.646017,-0.644 -1.646017,-1.438c0,-0.795 0.739449,-1.438 1.646017,-1.438c0.905424,0 1.646017,0.643 1.646017,1.438z"/>
  </g>
  <g id="svg_3"/>
  <g id="svg_4"/>
  <g id="svg_5"/>
  <g id="svg_6"/>
  <g id="svg_7"/>
  <g id="svg_8"/>
  <g id="svg_9"/>
  <g id="svg_10"/>
  <g id="svg_11"/>
  <g id="svg_12"/>
  <g id="svg_13"/>
  <g id="svg_14"/>
  <g id="svg_15"/>
  <g id="svg_16"/>
  <g id="svg_17"/>
 </g>
</svg>