<svg width="81.751" height="81.751" xmlns="http://www.w3.org/2000/svg">

 <g>
  <title>background</title>
  <rect fill="none" id="canvas_background" height="402" width="582" y="-1" x="-1"/>
 </g>
 <g>
  <title>Layer 1</title>
  <g stroke="null" id="svg_1">
   <path stroke="null" fill="#273141" id="svg_2" d="m74.89089,21.076l-9.250631,0l0,-15.554c0,-3.039 -2.653721,-5.522 -5.898225,-5.522l-38.93726,0c-3.246641,0 -5.898225,2.483 -5.898225,5.522l0,70.707c0,3.038 2.652652,5.522 5.898225,5.522l38.93726,0c3.243436,0 5.898225,-2.484 5.898225,-5.522l0,-17.754l9.250631,0c3.110964,0 5.640759,-2.352 5.640759,-5.244l0,-26.911c0,-2.889 -2.529795,-5.244 -5.640759,-5.244zm-40.847426,-17.096l12.457744,0c0.393144,0 0.715778,0.299 0.715778,0.668c0,0.366 -0.322634,0.667 -0.715778,0.667l-12.457744,0c-0.394212,0 -0.712573,-0.301 -0.712573,-0.667c0,-0.369 0.318361,-0.668 0.712573,-0.668zm6.228338,75.014c-1.625991,0 -2.949647,-1.236 -2.949647,-2.765c0,-1.524 1.32045,-2.761 2.949647,-2.761s2.952852,1.236 2.952852,2.761c-0.001068,1.528 -1.323655,2.765 -2.952852,2.765zm21.261814,-7.459l-42.525766,0l0,-62.778l42.525766,0l0,12.319l-24.309747,0c-3.107759,0 -5.636485,2.355 -5.636485,5.247l0,26.911c0,2.891 2.528727,5.244 5.636485,5.244l3.40689,0l0,9.015l9.632023,-9.015l11.270834,0l0,13.057zm16.502424,-18.302c0,1.604 -1.408053,2.908 -3.14515,2.908l-25.659042,0l-6.103344,5.712l0,-5.712l-5.904635,0c-1.731756,0 -3.140877,-1.305 -3.140877,-2.908l0,-26.911c0,-1.605 1.406985,-2.911 3.140877,-2.911l37.667021,0c1.731756,0 3.14515,1.306 3.14515,2.911l0,26.911zm-6.240089,-21.483c0,0.799 -0.647405,1.444 -1.445444,1.444l-28.509335,0c-0.795903,0 -1.445444,-0.645 -1.445444,-1.444c0,-0.794 0.649542,-1.443 1.445444,-1.443l28.509335,0c0.796971,0 1.445444,0.649 1.445444,1.443zm0,7.83c0,0.8 -0.647405,1.447 -1.445444,1.447l-28.509335,0c-0.795903,0 -1.445444,-0.647 -1.445444,-1.447c0,-0.793 0.649542,-1.44 1.445444,-1.44l28.509335,0c0.796971,-0.001 1.445444,0.646 1.445444,1.44zm0,7.83c0,0.798 -0.647405,1.446 -1.445444,1.446l-28.509335,0c-0.795903,0 -1.445444,-0.648 -1.445444,-1.446c0,-0.796 0.649542,-1.441 1.445444,-1.441l28.509335,0c0.796971,-0.001 1.445444,0.647 1.445444,1.441z"/>
  </g>
  <g id="svg_3"/>
  <g id="svg_4"/>
  <g id="svg_5"/>
  <g id="svg_6"/>
  <g id="svg_7"/>
  <g id="svg_8"/>
  <g id="svg_9"/>
  <g id="svg_10"/>
  <g id="svg_11"/>
  <g id="svg_12"/>
  <g id="svg_13"/>
  <g id="svg_14"/>
  <g id="svg_15"/>
  <g id="svg_16"/>
  <g id="svg_17"/>
 </g>
</svg>